<svg xmlns="http://www.w3.org/2000/svg" xmlns:xlink="http://www.w3.org/1999/xlink" fill="none" version="1.1" width="154.960205078125" height="40" viewBox="0 0 154.960205078125 40"><defs><clipPath id="master_svg0_4077_02608"><rect x="0" y="0" width="154.960205078125" height="40" rx="0"/></clipPath></defs><g clip-path="url(#master_svg0_4077_02608)"><g><path d="M46.2609,14.84671C48.5295,14.84671,50.6791,15.3345,51.855,16.1436L50.5581,20.2802C49.3417,19.7009,48.0126,19.3961,46.6654,19.3878C43.5025,19.3878,42.1281,21.2122,42.1281,24.3354L42.1281,25.4697C42.1281,28.593,43.5063,30.4174,46.6654,30.4174C48.0126,30.4089,49.3417,30.1043,50.5581,29.525L51.855,33.6597C50.6791,34.4707,48.5314,34.9585,46.2609,34.9585C39.4076,34.9585,36.2863,31.2681,36.2863,25.3487L36.2863,24.4564C36.2863,18.537100000000002,39.4076,14.84671,46.2609,14.84671ZM12.1242,9.69811C10.2998,9.69811,9.77232,10.50728,9.77232,12.291979999999999L9.77232,15.2526L14.6386,15.2526L14.1509,20.0357L9.77421,20.0357L9.77421,34.5514L3.93426,34.5514L3.93426,20.0357L0,20.0357L0,15.2526L3.93426,15.2526L3.93426,12.37326C3.93426,7.5485500000000005,5.87965,5.0000749868,11.3074,5.0000749868C12.4448,4.99742677,13.5814,5.0649218,14.7105,5.202363L14.7105,9.70378L12.1242,9.69811ZM15.0437,24.2935C15.0437,18.901600000000002,17.5979,14.84067,22.9501,14.84067C25.869,14.84067,27.6518,16.3418,28.5045,18.2059L28.5045,15.2528L34.0986,15.2528L34.0986,34.5516L28.5045,34.5516L28.5045,31.6326C27.6935,33.498599999999996,25.869,34.9581,22.9501,34.9581C17.5979,34.9581,15.0437,30.9029,15.0437,25.5053L15.0437,24.2935ZM20.8817,25.5923C20.8817,28.4697,21.9348,30.3754,24.6515,30.3754C27.045,30.3754,28.2606,28.6323,28.2606,25.8758L28.2606,23.938C28.2606,21.1816,27.045,19.438499999999998,24.6515,19.438499999999998C21.9348,19.438499999999998,20.8817,21.3442,20.8817,24.2216L20.8817,25.5923ZM92.3917,25.5114C92.3917,30.9033,89.7979,34.964200000000005,84.4514,34.964200000000005C81.5323,34.964200000000005,79.5057,33.5047,78.6946,31.6387L78.6946,34.5578L73.1817,34.5578L73.1817,5.562224L79.0198,5.0328664L79.0198,17.9265C79.8706,16.225,81.7365,14.84485,84.4533,14.84485C89.8055,14.84485,92.3936,18.900100000000002,92.3936,24.2977L92.3917,25.5114ZM86.5537,24.1729C86.5537,21.4562,85.5006,19.4295,82.7026,19.4295C80.3092,19.4295,79.0122,21.131,79.0122,23.8893L79.0122,25.916C79.0122,28.6724,80.3092,30.3758,82.7026,30.3758C85.5006,30.3758,86.5537,28.3492,86.5537,25.6324L86.5537,24.1729ZM52.6275,25.6398L52.6275,23.9383C52.6275,18.4652,55.7488,14.86364,62.1162,14.86364C68.1168,14.86364,70.7523,18.5124,70.7523,23.8646L70.7523,26.9462L58.4636,26.9462C58.5865,29.5816,59.7624,30.7576,63.001,30.7576C65.1922,30.7576,67.5024,30.3114,69.2058,29.5816L70.2739,33.580200000000005C68.7332,34.393100000000004,65.5702,35,62.7741,35C55.3839,34.9981,52.6275,31.3115,52.6275,25.6398ZM58.4655,23.1254L65.5211,23.1254L65.5211,22.6395C65.5211,20.5315,64.6703,18.8584,62.1181,18.8584C59.4807,18.860300000000002,58.4655,20.524,58.4655,23.1178L58.4655,23.1254ZM94.3423,25.3885L94.3423,24.4167C94.3423,18.8604,97.5052,14.84671,103.952,14.84671C110.399,14.84671,113.564,18.8604,113.564,24.4167L113.564,25.3885C113.564,30.9429,110.401,34.9585,103.954,34.9585C97.5071,34.9585,94.3423,30.9429,94.3423,25.3885ZM107.724,24.0103C107.724,21.4561,106.669,19.4294,103.943,19.4294C101.216,19.4294,100.171,21.4561,100.171,24.0103L100.171,25.7949C100.171,28.3491,101.226,30.3758,103.943,30.3758C106.659,30.3758,107.724,28.3491,107.724,25.7949L107.724,24.0103ZM115.51,25.3885L115.51,24.4167C115.51,18.8604,118.673,14.84671,125.12,14.84671C131.567,14.84671,134.73,18.8604,134.73,24.4167L134.73,25.3885C134.73,30.9429,131.567,34.9585,125.12,34.9585C118.673,34.9585,115.51,30.9429,115.51,25.3885ZM128.892,24.0103C128.892,21.4561,127.837,19.4294,125.12,19.4294C122.403,19.4294,121.35,21.4561,121.35,24.0103L121.35,25.7949C121.35,28.3491,122.403,30.3758,125.12,30.3758C127.837,30.3758,128.892,28.3491,128.892,25.7949L128.892,24.0103ZM142.757,24.4565L148.513,15.2532L154.716,15.2532L148.676,24.7817L154.96,34.552099999999996L148.757,34.552099999999996L142.757,25.0993L142.757,34.552099999999996L136.917,34.552099999999996L136.917,5.562224L142.757,5.0328664L142.757,24.4565Z" fill="#9DA2AD" fill-opacity="1"/></g></g></svg>