<svg xmlns="http://www.w3.org/2000/svg" xmlns:xlink="http://www.w3.org/1999/xlink" fill="none" version="1.1" width="136.77418518066406" height="40" viewBox="0 0 136.77418518066406 40"><defs><clipPath id="master_svg0_4077_02618"><rect x="0" y="0" width="136.77418518066406" height="40" rx="0"/></clipPath></defs><g clip-path="url(#master_svg0_4077_02618)"><g><g><path d="M14.8129,6.418212890625L14.8129,17.353712890624998L4.76645,17.353712890624998L4.76645,6.418212890625L0,6.418212890625L0,32.522712890625L4.76774,32.522712890625L4.76774,21.942112890624998L14.8116,21.942112890624998L14.8116,32.522712890625L19.5806,32.522712890625L19.5806,6.418212890625L14.8129,6.418212890625ZM34.8413,24.085312890625C34.8413,26.264212890625,33.075,28.030512890625,30.8961,28.030512890625C28.7173,28.030512890625,26.951,26.264212890625,26.951,24.085312890625L26.951,12.903372890625L22.4284,12.903372890625L22.4284,24.085312890625C22.4307,28.755712890625,26.2174,32.540512890624996,30.8877,32.540512890624996C35.5581,32.540512890624996,39.3448,28.755712890625,39.3471,24.085312890625L39.3471,12.903372890625L34.8413,12.903372890625L34.8413,24.085312890625ZM68.3523,14.055632890624999C68.3523,11.762732890625,69.8684,11.036282890625,71.529,11.036282890625C72.8684,11.036282890625,74.6361,12.055632890624999,75.7935,13.291762890625L78.7548,9.800152890625C77.2761,7.800152890625,74.2774,6.418212890625,71.8219,6.418212890625C66.9148,6.418212890625,63.3664,9.291762890625,63.3664,14.055632890624999C63.3664,22.894312890625,74.169,20.089212890625,74.169,25.036312890625C74.169,26.561412890625,72.6877,27.908512890625,70.9922,27.908512890625C68.3174,27.908512890625,67.4503,26.601412890625,66.2219,25.218212890625L62.9342,28.636312890625C65.0374,31.216912890625,67.631,32.527912890625004,70.7368,32.527912890625004C75.3987,32.527912890625004,79.1484,29.619512890625,79.1484,25.072412890625C79.1484,15.260792890625,68.3445,18.309812890625,68.3523,14.055632890624999ZM135.183,28.352412890625C132.511,28.352412890625,131.751,27.196312890625,131.751,25.425912890625L131.751,17.587212890625L135.906,17.587212890625L135.906,13.615632890625001L131.751,13.615632890625001L131.751,8.375632890624999L127.165,10.433692890625L127.165,26.400112890625C127.165,30.484012890625,129.983,32.542112890625,133.846,32.542112890625C134.453,32.552412890625,135.059,32.503412890625,135.655,32.397612890625L136.774,28.278812890625C136.27,28.313712890625,135.69,28.348512890625,135.183,28.352412890625ZM52.0568,13.033692890625C49.8168,13.033692890625,48.2529,13.684022890625,46.7406,15.166602890625L46.7406,6.574341890625L42.2116,6.574341890625L42.2116,22.500812890625C42.2116,28.462112890625,46.5213,32.547212890625005,51.3652,32.547212890625005C56.7381,32.547212890625005,61.4645,28.389812890625,61.4645,22.792412890625C61.4645,17.264712890625,57.1148,13.037572890625,52.0568,13.033692890625ZM52.0284,27.988512890625C49.1896,27.988512890625,46.8884,25.687312890625,46.8884,22.848512890625C46.8884,20.009812890625,49.1896,17.708512890625002,52.0284,17.708512890625002C54.8671,17.708512890625002,57.1684,20.009812890625,57.1684,22.848512890625C57.1684,25.687312890625,54.8671,27.988512890625,52.0284,27.988512890625ZM101.244,22.555012890625C101.244,16.947212890625,96.5277,12.800152890625,91.1445,12.800152890625C86.3019,12.800152890625,81.991,16.884012890625,81.991,22.846612890625L81.991,38.782112890625L86.52,38.782112890625L86.52,30.178212890625C88.0297,31.658212890625,89.5961,32.311112890625,91.8335,32.311112890625C96.8916,32.311112890625,101.243,28.084012890625,101.244,22.555012890625ZM96.9548,22.498212890625C96.9548,25.336912890625,94.6536,27.638212890625,91.8148,27.638212890625C88.9761,27.638212890625,86.6748,25.336912890625,86.6748,22.498212890625C86.6748,19.659512890625003,88.9761,17.358212890624998,91.8148,17.358212890624998C94.6536,17.358212890624998,96.9548,19.659512890625003,96.9548,22.498212890625Z" fill="#9DA2AD" fill-opacity="1"/></g><g><path d="M115.878009375,12.58075859375L115.878009375,8.02981859375C117.105509375,7.45609859375,117.892409375,6.22610859375,117.898609375,4.87110859375L117.898609375,4.76658859375C117.898609375,2.83110859375,116.329609375,1.26206859375,114.394109375,1.26206859375L114.289609375,1.26206859375C112.35410937500001,1.26206859375,110.785109375,2.83109859375,110.785109375,4.76658859375L110.785109375,4.87110859375C110.791309375,6.22610859375,111.578109375,7.45609859375,112.80570937499999,8.02981859375L112.80570937499999,12.58075859375C111.077309375,12.84545859375,109.449409375,13.56205859375,108.08700937500001,14.65815859375L95.605729375,4.93690859375C95.694759375,4.61561859375,95.741219375,4.28529859375,95.746379375,3.95368859375C95.750649375,1.77271859375,93.985829375,0.0013638837499999998,91.804869375,-0.00243528416C89.623899375,-0.00623475625,87.852926935,1.75895859375,87.849609375,3.93992859375C87.846281975,6.12089859375,89.611859375,7.89147859375,91.792829375,7.89432859375C92.476109375,7.89110859375,93.146609375,7.70869859375,93.737349375,7.36529859375L106.027709375,16.92915859375C103.768209375,20.34255859375,103.828609375,24.79125859375,106.179909375,28.14205859375L102.441809375,31.88145859375C102.139709375,31.78475859375,101.824909375,31.73345859375,101.507709375,31.72915859375C99.717509375,31.73055859375,98.267209375,33.18245859375,98.267709375,34.97265859375C98.268109375,36.76275859375,99.719209375,38.21385859375,101.509409375,38.21435859375C103.299509375,38.21475859375,104.75140937500001,36.76445859375,104.752809375,34.97435859375C104.748609375,34.65705859375,104.697309375,34.34225859375,104.600609375,34.04015859375L108.298609375,30.34075859375C113.464309375,34.31765859375,120.994109375,32.34945859375,123.552909375,26.35345859375C126.111809375,20.35755859375,122.32330937500001,13.55905859375,115.878009375,12.58075859375ZM114.34510937499999,27.54855859375C111.465509375,27.62775859375,109.088209375,25.31495859375,109.088209375,22.43435859375C109.088209375,19.55365859375,111.465509375,17.24095859375,114.34510937499999,17.32015859375C117.098309375,17.41655859375,119.280809375,19.67565859375,119.282109375,22.43055859375C119.283509375,25.18545859375,117.103309375,27.44675859375,114.34510937499999,27.54855859375Z" fill="#9DA2AD" fill-opacity="1"/></g></g></g></svg>