<svg xmlns="http://www.w3.org/2000/svg" xmlns:xlink="http://www.w3.org/1999/xlink" fill="none" version="1.1" width="150.30303955078125" height="40" viewBox="0 0 150.30303955078125 40"><defs><clipPath id="master_svg0_4077_02622"><rect x="0" y="0" width="150.30303955078125" height="40" rx="0"/></clipPath></defs><g clip-path="url(#master_svg0_4077_02622)"><g><path d="M56.013909375,8.1806640625L47.724219375,8.1806640625C47.156949374999996,8.1806640625,46.674519375,8.5927850625,46.586039375,9.1527850625L43.233311505,30.4097640625C43.166644475,30.8291640625,43.491494375,31.2073640625,43.916947375,31.2073640625L47.874519375,31.2073640625C48.441789375,31.2073640625,48.924219375,30.7951640625,49.012699375,30.2339640625L49.916939375,24.5006640625C50.004209375,23.9394640625,50.487849374999996,23.5273640625,51.053909375,23.5273640625L53.678109375,23.5273640625C59.138809375,23.5273640625,62.290309375,20.8848640625,63.113309375,15.648544062500001C63.484209375,13.3576340625,63.129109375,11.5576340625,62.056309375,10.2970340625C60.878209375,8.9127850625,58.788509375000004,8.1806640625,56.013909375,8.1806640625ZM56.970309375,15.944304062499999C56.516909375,18.9188640625,54.244209375,18.9188640625,52.046649375,18.9188640625L50.795729375,18.9188640625L51.673309375,13.363694062499999C51.725429375,13.0279340625,52.016339375,12.7806640625,52.355729374999996,12.7806640625L52.929069375,12.7806640625C54.426009375,12.7806640625,55.838109375,12.7806640625,56.567809374999996,13.633994062500001C57.003009375,14.1430840625,57.136309374999996,14.8994540625,56.970309375,15.944304062499999Z" fill="#9DA2AD" fill-opacity="1"/></g><g><path d="M80.793278125,15.848674796875L76.823578125,15.848674796875C76.485378125,15.848674796875,76.193278125,16.095946796875,76.141178125,16.431704796875L75.965378125,17.542011796875L75.687878125,17.139581796875C74.828478125,15.892311796875,72.912078125,15.475341796875,70.999368125,15.475341796875C66.612698125,15.475341796875,62.866031125,18.797761796875,62.136333125,23.458371796875C61.756939125,25.783241796875,62.296333125,28.006241796875003,63.615118125,29.556541796875003C64.82481812500001,30.982041796875002,66.555728125,31.575941796875,68.615118125,31.575941796875Q72.149678125,31.575941796875,74.109678125,29.303241796875L73.932678125,30.406241796875C73.866078125,30.828041796875,74.190878125,31.206241796875,74.613878125,31.206241796875L78.189678125,31.206241796875C78.758178125,31.206241796875,79.238178125,30.794141796875,79.327878125,30.232941796875L81.47327812500001,16.646251796875C81.541178125,16.228067796875,81.217578125,15.848674796875,80.793278125,15.848674796875ZM75.259978125,23.574731796875C74.876978125,25.842641796875,73.076978125,27.365041796874998,70.781188125,27.365041796874998C69.628458125,27.365041796874998,68.707248125,26.995341796875,68.115728125,26.294741796875C67.529058125,25.598941796875,67.306038125,24.608671796875,67.492698125,23.505641796875C67.850278125,21.257161796875,69.680578125,19.685041796874998,71.941178125,19.685041796874998C73.068478125,19.685041796874998,73.984778125,20.059581796875,74.588478125,20.766251796875C75.193278125,21.480191796875,75.433278125,22.476551796875,75.259978125,23.574731796875Z" fill="#9DA2AD" fill-opacity="1"/></g><g><path d="M101.934753125,15.848389827845L97.945653125,15.848389827845C97.565053125,15.848389827845,97.207453125,16.037480671875,96.991753125,16.353843671875L91.489903125,24.458088671875L89.157783125,16.670207671875C89.011113125,16.182933671875,88.561423125,15.848388671875,88.052323125,15.848388671875L84.132322125,15.848388671875C83.655961125,15.848388671875,83.325049125,16.313842671875,83.476564325,16.762327671875L87.870503125,29.656888671875002L83.739598125,35.488388671875C83.414752425,35.947788671875,83.742021125,36.579288671875,84.303230125,36.579288671875L88.287473125,36.579288671875C88.665653125,36.579288671875,89.019593125,36.395088671875,89.234143125,36.084788671875L102.502053125,16.933238671875C102.819653125,16.475056671875,102.493553125,15.848389827845,101.934753125,15.848389827845Z" fill="#9DA2AD" fill-opacity="1"/></g><g><path d="M115.142815625,8.1806640625L106.851915625,8.1806640625C106.285855625,8.1806640625,105.803435625,8.5927850625,105.714945625,9.1527850625L102.362217755,30.4097640625C102.295550725,30.8291640625,102.620396625,31.2073640625,103.043425625,31.2073640625L107.297975625,31.2073640625C107.693125625,31.2073640625,108.031315625,30.9188640625,108.093125625,30.5261640625L109.044645625,24.5006640625C109.131915625,23.9394640625,109.615555625,23.5273640625,110.181615625,23.5273640625L112.804615625,23.5273640625C118.26641562500001,23.5273640625,121.416815625,20.8848640625,122.241015625,15.648544062500001C122.613115625,13.3576340625,122.255515625,11.5576340625,121.182815625,10.2970340625C120.005815625,8.9127850625,117.917415625,8.1806640625,115.142815625,8.1806640625ZM116.099215625,15.944304062499999C115.647115625,18.9188640625,113.374315625,18.9188640625,111.175565625,18.9188640625L109.925865625,18.9188640625L110.804655625,13.363694062499999C110.856775625,13.0279340625,111.145255625,12.7806640625,111.485865625,12.7806640625L112.059195625,12.7806640625C113.554915625,12.7806640625,114.968315625,12.7806640625,115.698015625,13.633994062500001C116.133115625,14.1430840625,116.265215625,14.8994540625,116.099215625,15.944304062499999Z" fill="#9DA2AD" fill-opacity="1"/></g><g><path d="M139.920890625,15.848674796875L135.953690625,15.848674796875C135.613090625,15.848674796875,135.323390625,16.095946796875,135.272390625,16.431704796875L135.096690625,17.542011796875L134.817890625,17.139581796875C133.958490625,15.892311796875,132.043390625,15.475341796875,130.130620625,15.475341796875C125.743950625,15.475341796875,121.998501625,18.797761796875,121.268807625,23.458371796875C120.890630625,25.783241796875,121.427591625,28.006241796875003,122.746390625,29.556541796875003C123.958510625,30.982041796875002,125.68699062499999,31.575941796875,127.746390625,31.575941796875Q131.280890625,31.575941796875,133.240890625,29.303241796875L133.063990625,30.406241796875C132.997290625,30.828041796875,133.322090625,31.206241796875,133.747590625,31.206241796875L137.322090625,31.206241796875C137.888190625,31.206241796875,138.370590625,30.794141796875,138.459090625,30.232941796875L140.605790625,16.646251796875C140.671190625,16.228067796875,140.346390625,15.848674796875,139.920890625,15.848674796875ZM134.387590625,23.574731796875C134.00699062500001,25.842641796875,132.204590625,27.365041796874998,129.908810625,27.365041796874998C128.758510625,27.365041796874998,127.834870625,26.995341796875,127.243350625,26.294741796875C126.656690625,25.598941796875,126.436080625,24.608671796875,126.620320625,23.505641796875C126.980320625,21.257161796875,128.808200625,19.685041796874998,131.068810625,19.685041796874998C132.196090625,19.685041796874998,133.112390625,20.059581796875,133.716090625,20.766251796875C134.323390625,21.480191796875,134.563390625,22.476551796875,134.387590625,23.574731796875Z" fill="#9DA2AD" fill-opacity="1"/></g><g><path d="M144.59863,8.763686359375L141.19620213,30.409743359375C141.1295351,30.829143359375,141.454381,31.207343359375,141.87741,31.207343359375L145.29801,31.207343359375C145.8665,31.207343359375,146.34892,30.795243359375,146.4362,30.233943359375L149.79135,8.978231359375C149.85802,8.558837359375,149.53317,8.179443359375,149.11014,8.179443359375L145.27983,8.179443359375C144.94166,8.180655969375,144.65075,8.427928359375,144.59863,8.763686359375Z" fill="#9DA2AD" fill-opacity="1"/></g><g><path d="M8.80636625,35.3382109375L9.44030625,31.3115109375L8.028186250000001,31.2788109375L1.28515625,31.2788109375L5.97121625,1.5660599375C5.98576625,1.4763629375,6.03303625,1.3927259375,6.10212625,1.3333321375C6.17121625,1.2739381375,6.25970625,1.2412109375,6.35182625,1.2412109375L17.72155625,1.2412109375C21.49605625,1.2412109375,24.10095625,2.0266659375,25.46095625,3.5769709375C26.09845625,4.3042409374999995,26.50455625,5.0642409375,26.70095625,5.9006009375C26.90695625,6.7781809375,26.91065625,7.8266609375,26.70935625,9.105450937499999L26.69485625,9.1987909375L26.69485625,10.0181809375L27.33245625,10.3793909375C27.86935625,10.6642409375,28.29605625,10.9903009375,28.62335625,11.3636109375C29.16875625,11.9854109375,29.52155625,12.7757109375,29.67065625,13.7127109375C29.82455625,14.6764109375,29.77365625,15.8230109375,29.52155625,17.121210937500003C29.23065625,18.6145109375,28.76035625,19.9151109375,28.12515625,20.9794109375C27.54095625,21.9600109375,26.79665625,22.7733109375,25.91305625,23.4036109375C25.06935625,24.0024109375,24.06695625,24.4570109375,22.93365625,24.7479109375C21.83545625,25.0339109375,20.58335625,25.1782109375,19.21005625,25.1782109375L18.32515625,25.1782109375C17.69245625,25.1782109375,17.07785625,25.4060109375,16.595456249999998,25.8145109375C16.111856250000002,26.2315109375,15.79185625,26.8012109375,15.69365625,27.4242109375L15.62695625,27.7867109375L14.50695625,34.8836109375L14.45605625,35.1442109375C14.44275625,35.2267109375,14.41975625,35.2679109375,14.38575625,35.2957109375C14.35545625,35.3212109375,14.31185625,35.3382109375,14.26935625,35.3382109375L8.80636625,35.3382109375Z" fill="#9DA2AD" fill-opacity="1"/></g><g><path d="M27.936,9.293212890625C27.902,9.510182890625,27.8632,9.731999890625,27.8196,9.959879890625C26.3202,17.658062890625,21.1905,20.317412890625,14.63899,20.317412890625L11.30323,20.317412890625C10.50202,20.317412890625,9.82687,20.899312890624998,9.702020000000001,21.689612890625L7.994141,32.521112890625005L7.5105049,35.591412890625C7.4292929,36.110212890625,7.829293,36.578012890625004,8.352929,36.578012890625004L14.26929,36.578012890625004C14.969899999999999,36.578012890625004,15.56505,36.069012890625004,15.67535,35.378012890625L15.73354,35.077412890625L16.847479999999997,28.008412890625L16.91899,27.620512890625C17.02808,26.927112890625,17.6244,26.418012890625,18.3251,26.418012890625L19.209899999999998,26.418012890625C24.942,26.418012890625,29.4293,24.090812890625,30.7408,17.356242890624998C31.2887,14.542912890625,31.0051,12.193812890625,29.5554,10.541692890625C29.1166,10.043516890625,28.5723,9.630182890625,27.936,9.293212890625Z" fill="#C1C7D4" fill-opacity="1"/></g><g><path d="M26.368625,8.667820671875C26.139525,8.601154671875,25.903125,8.540547671875,25.660725,8.486002671875C25.417025000000002,8.432668671875,25.167324999999998,8.385396671875,24.910425,8.344184671875C24.011025,8.198729771875,23.025525000000002,8.129638671875,21.969825,8.129638671875L13.058275,8.129638671875C12.838885,8.129638671875,12.630395,8.179335471875,12.443735,8.269032671875C12.032824999999999,8.466608671875,11.727364999999999,8.855699671875,11.653425,9.332058671875L9.7576705,21.339338671874998L9.703125,21.689638671875002C9.827973,20.899338671875,10.503125,20.317538671875,11.304335,20.317538671875L14.640094999999999,20.317538671875C21.191625000000002,20.317538671875,26.321325,17.656908671875,27.820725,9.959938671875C27.865525,9.732058671875,27.903125,9.510248671875,27.937025,9.293278671875001C27.557625,9.092061671875,27.146725,8.919940671875,26.704325,8.773273671875C26.595225,8.736911671875,26.482525,8.701759671875,26.368625,8.667820671875Z" fill="#9DA2AD" fill-opacity="1"/></g><g><path d="M11.6533,9.33212C11.7273,8.85576,12.0327,8.46667,12.4436,8.2703C12.6315,8.18061,12.8388,8.13091,13.0582,8.13091L21.9697,8.13091C23.0255,8.13091,24.0109,8.2,24.9103,8.34546C25.1673,8.38667,25.417,8.43394,25.6606,8.48727C25.903,8.54182,26.1394,8.60242,26.3685,8.66909C26.4824,8.70303,26.5952,8.73818,26.7055,8.77333C27.1479,8.92,27.5588,9.09333,27.9382,9.29333C28.3842,6.44849,27.9345,4.51152,26.3964,2.75758C24.7006,0.826667,21.64,0,17.7236,0L6.35394,0C5.55394,0,4.87151,0.581818,4.74788,1.37333L0.0121212,31.3915C-0.0812121,31.9855,0.37697,32.5212,0.975758,32.5212L7.99515,32.5212L9.75758,21.3394L11.6533,9.33212Z" fill="#9DA2AD" fill-opacity="1"/></g></g></svg>