<svg xmlns="http://www.w3.org/2000/svg" xmlns:xlink="http://www.w3.org/1999/xlink" fill="none" version="1.1" width="96.12816619873047" height="40" viewBox="0 0 96.12816619873047 40"><defs><clipPath id="master_svg0_4077_02633"><rect x="0" y="0" width="96.12816619873047" height="40" rx="0"/></clipPath></defs><g clip-path="url(#master_svg0_4077_02633)"><g><path d="M96.1282,20.6676C96.1282,13.8318,92.8171,8.43792,86.4886,8.43792C80.1335,8.43792,76.2884,13.8318,76.2884,20.6142C76.2884,28.6515,80.8278,32.7103,87.3431,32.7103C90.5207,32.7103,92.9239,31.9893,94.7396,30.9746L94.7396,25.6342C92.9239,26.5421,90.8411,27.1028,88.1976,27.1028C85.6075,27.1028,83.3111,26.1949,83.0173,23.0441L96.0748,23.0441C96.0748,22.6969,96.1282,21.3084,96.1282,20.6676ZM82.9372,18.1308C82.9372,15.1135,84.7797,13.8585,86.4619,13.8585C88.0908,13.8585,89.8264,15.1135,89.8264,18.1308L82.9372,18.1308ZM65.9813,8.43792C63.3645,8.43792,61.6822,9.66622,60.7477,10.5207L60.4005,8.86515L54.526,8.86515L54.526,40L61.2016,38.5848L61.2283,31.028C62.1896,31.7223,63.6048,32.7103,65.9546,32.7103C70.7343,32.7103,75.0868,28.8652,75.0868,20.4005C75.0601,12.6569,70.6542,8.43792,65.9813,8.43792ZM64.3792,26.8358C62.8037,26.8358,61.8692,26.275,61.2283,25.5808L61.2016,15.6742C61.8959,14.8999,62.8571,14.3658,64.3792,14.3658C66.8091,14.3658,68.4913,17.0895,68.4913,20.5875C68.4913,24.1656,66.8358,26.8358,64.3792,26.8358ZM45.3405,6.86248L52.0427,5.42056L52.0427,0L45.3405,1.41522L45.3405,6.86248ZM45.3405,8.89186L52.0427,8.89186L52.0427,32.2563L45.3405,32.2563L45.3405,8.89186ZM38.1575,10.8678L37.7303,8.89185L31.9626,8.89185L31.9626,32.2563L38.6382,32.2563L38.6382,16.4219C40.2136,14.3658,42.8838,14.7397,43.7116,15.0334L43.7116,8.89186C42.8571,8.57143,39.733,7.98398,38.1575,10.8678ZM24.8064,3.09746L18.2911,4.48598L18.2643,25.8745C18.2643,29.8264,21.2283,32.737,25.1802,32.737C27.3698,32.737,28.972,32.3364,29.8531,31.8558L29.8531,26.4352C28.9987,26.7824,24.7797,28.0107,24.7797,24.0587L24.7797,14.5794L29.8531,14.5794L29.8531,8.89186L24.7797,8.89186L24.8064,3.09746ZM6.75567,15.6742C6.75567,14.6328,7.61015,14.2323,9.02537,14.2323C11.0547,14.2323,13.6182,14.8465,15.6475,15.9413L15.6475,9.66622C13.4312,8.78504,11.2417,8.43792,9.02537,8.43792C3.60481,8.43792,0,11.2684,0,15.9947C0,23.3645,10.1469,22.1896,10.1469,25.3672C10.1469,26.5955,9.07877,26.996,7.58345,26.996C5.36716,26.996,2.53672,26.0881,0.293726,24.8598L0.293726,31.215C2.77704,32.283,5.28705,32.737,7.58345,32.737C13.1375,32.737,16.9559,29.9866,16.9559,25.2069C16.9292,17.2497,6.75567,18.6649,6.75567,15.6742Z" fill-rule="evenodd" fill="#9DA2AD" fill-opacity="1"/></g></g></svg>