<svg xmlns="http://www.w3.org/2000/svg" xmlns:xlink="http://www.w3.org/1999/xlink" fill="none" version="1.1" width="161.40872192382812" height="40" viewBox="0 0 161.40872192382812 40"><defs><clipPath id="master_svg0_4077_02635"><rect x="0" y="0" width="161.40872192382812" height="40" rx="0"/></clipPath></defs><g clip-path="url(#master_svg0_4077_02635)"><g><path d="M9.64119,17.0745L13.541,17.0745L13.541,12.84971L9.64119,12.84971L9.64119,7L3.24984,7L3.24984,12.84971L0,12.84971L0,17.0745L3.24984,17.0745L3.24984,25.6324C3.24984,30.9405,4.65811,32.5654,10.0745,32.5654C11.1578,32.5654,12.3494,32.3488,13.541,32.3488L13.541,27.6906C12.9994,27.6906,12.4577,27.799,11.9161,27.799C10.5078,27.799,9.64119,27.474,9.64119,25.9574L9.64119,17.0745ZM60.5553,7L54.164,7L54.164,32.4571L60.5553,32.4571L60.5553,21.840899999999998C60.5553,19.6744,61.6386,17.6161,64.0219,17.6161C67.32,17.6161,67.2986,19.9214,67.2756,22.405099999999997C67.2736,22.6134,67.2717,22.823,67.2717,23.0325L67.2717,32.4571L73.663,32.4571L73.663,19.891C73.663,17.0745,73.1214,12.30807,66.6217,12.30807C64.2385,12.30807,61.6386,13.60801,60.6637,15.55791L60.5553,15.55791L60.5553,7ZM120.786,32.4571L126.852,32.4571L126.852,7L120.461,7L120.461,15.1246L120.352,15.1246C119.052,13.28302,117.211,12.4164,114.828,12.4164C109.303,12.4164,106.595,17.1828,106.595,22.2742C106.595,27.6906,109.195,32.9987,115.369,32.9987C117.507,33.0422,119.515,31.9767,120.677,30.1822L120.786,30.1822L120.786,32.4571ZM23.5072,28.6656C20.799,28.6656,19.2824,26.9324,19.1741,24.2241L33.4734,24.2241C33.7983,17.6161,30.3318,12.30807,23.2905,12.30807C17.5491,12.30807,12.7827,16.64119,12.7827,22.5992C12.7827,29.2072,17.1158,32.9987,23.5072,32.9987C27.8403,32.9987,32.0651,31.0488,33.1484,26.499L27.1903,26.499C26.5404,27.9073,25.0238,28.6656,23.5072,28.6656ZM87.8592,18.8077C87.8572,18.8437,87.8555,18.8798,87.854,18.9161L87.854,18.8077L87.8592,18.8077ZM87.8592,18.8077L93.7037,18.8077C94.0287,17.0745,95.2203,16.316209999999998,96.9536,16.316209999999998C98.3618,16.316209999999998,100.095,16.85785,100.095,18.3744C100.095,19.566000000000003,99.4451,19.9994,98.3618,20.216C93.9204,21.191000000000003,86.9874,20.6493,86.9874,27.0407C86.9874,31.1571,90.0206,32.9987,93.7037,32.9987C96.0869,32.9987,98.4701,32.3488,100.203,30.5072C100.203,31.1571,100.312,31.6988,100.528,32.3488L106.92,32.3488C106.161,30.8322,106.161,28.9906,106.161,27.3657L106.161,18.8077C106.161,13.28302,101.72,12.30807,97.0619,12.30807C94.8953,12.30807,92.6204,12.74138,90.8872,13.71633C89.1781,14.677669999999999,87.9957,16.270960000000002,87.8592,18.8077ZM127.832,18.8077C127.83,18.8437,127.829,18.8798,127.827,18.9161L127.827,18.8077L127.832,18.8077ZM127.832,18.8077L133.677,18.8077C134.002,17.0745,135.193,16.316209999999998,136.927,16.316209999999998C138.335,16.316209999999998,140.068,16.85785,140.068,18.3744C140.068,19.566000000000003,139.418,19.9994,138.335,20.216C133.893,21.191000000000003,126.96,20.6493,126.96,27.0407C126.96,31.1571,129.994,32.9987,133.677,32.9987C135.952,32.9987,138.443,32.3488,140.176,30.5072C140.176,31.1571,140.285,31.6988,140.501,32.3488L146.893,32.3488C146.134,30.8322,146.134,28.9906,146.134,27.3657L146.134,18.8077C146.134,13.28302,141.693,12.30807,137.035,12.30807C134.868,12.30807,132.593,12.74138,130.86,13.71633C129.151,14.677669999999999,127.969,16.270960000000002,127.832,18.8077ZM44.4145,17.1828C46.0394,17.1828,47.556,18.3744,47.556,19.9994L47.556,20.1077L53.839,20.1077C53.4057,15.01627,49.0726,12.4164,44.1978,12.4164C37.8065,12.4164,33.9067,16.85785,33.9067,23.0325C33.9067,28.9906,38.3481,32.9987,44.1978,32.9987C49.3976,32.9987,53.4057,29.9655,53.9473,24.6575L47.7726,24.6575C47.4477,26.7157,46.3644,28.0156,44.0895,28.0156C41.3813,28.0156,40.298,25.4158,40.298,22.9242C40.298,20.216,40.8396,17.1828,44.4145,17.1828ZM153.284,12.84971L147.109,12.84971L147.218,12.84971L147.218,32.4571L153.609,32.4571L153.609,22.8159C153.609,20.3243,155.234,18.1578,158.376,18.1578C159.242,18.1578,160.542,18.2661,161.409,18.482799999999997L161.409,12.63305C160.867,12.52473,159.784,12.52473,159.242,12.52473C156.534,12.52473,154.367,13.82466,153.392,16.316209999999998L153.284,16.316209999999998L153.284,12.84971ZM80.3794,12.84971L74.2047,12.84971L74.2047,32.4571L80.596,32.4571L80.596,22.8159C80.596,20.3243,82.2209,18.1578,85.3625,18.1578C86.2291,18.1578,86.9874,18.2661,87.854,18.482799999999997L87.854,12.63306C87.3124,12.52473,86.8791,12.52473,86.3374,12.52473C83.6292,12.52473,81.4627,13.82466,80.4877,16.316209999999998L80.3794,16.316209999999998L80.3794,12.84971ZM23.2905,16.64119C25.4571,16.64119,26.9737,18.482799999999997,27.082,20.6493L19.1741,20.6493C19.499,18.2661,21.0156,16.64119,23.2905,16.64119ZM116.886,28.124C113.961,28.124,112.986,25.1991,112.986,22.4909C112.986,19.9994,113.961,17.1828,116.886,17.2912C119.702,17.2912,120.677,19.891,120.677,22.7076C120.677,25.1991,120.027,28.124,116.886,28.124ZM99.9867,23.3575C100.203,27.3657,99.1201,29.0989,96.0869,29.0989C94.6787,29.0989,93.4871,28.4489,93.4871,26.9323C93.4871,25.4158,94.6787,24.7658,96.0869,24.4408C97.3869,24.0075,99.1201,23.8992,99.9867,23.3575ZM139.96,23.3575C140.176,27.3657,139.093,29.0989,136.06,29.0989C134.652,29.0989,133.352,28.4489,133.46,26.9323C133.46,25.4158,134.652,24.7658,136.06,24.4408C137.36,24.0075,139.093,23.8992,139.96,23.3575ZM161.409,26.0658L155.017,26.0658L155.017,32.4572L161.409,32.4572L161.409,26.0658Z" fill-rule="evenodd" fill="#9DA2AD" fill-opacity="1"/></g></g></svg>